<svg width="25" height="27" viewBox="0 0 25 27" fill="none" xmlns="http://www.w3.org/2000/svg">
<path d="M24.2635 4.91837C23.9669 4.54519 23.5955 4.24505 23.1758 4.03927C22.7561 3.8335 22.2983 3.72713 21.8349 3.72772H4.78571L4.74142 3.33968C4.65078 2.5331 4.28101 1.78943 3.70219 1.24965C3.12338 0.709872 2.37577 0.411511 1.6011 0.411133L1.367 0.411133C1.08733 0.411133 0.819115 0.527608 0.621357 0.734935C0.423599 0.942262 0.3125 1.22346 0.3125 1.51666C0.3125 1.80987 0.423599 2.09106 0.621357 2.29839C0.819115 2.50572 1.08733 2.62219 1.367 2.62219H1.6011C1.85939 2.62223 2.10868 2.72164 2.30169 2.90157C2.4947 3.08151 2.61801 3.32945 2.64823 3.59837L4.09923 16.5331C4.24986 17.8783 4.86635 19.1186 5.83168 20.0188C6.79701 20.919 8.04398 21.4162 9.3359 21.4162H20.3481C20.6278 21.4162 20.896 21.2997 21.0937 21.0924C21.2915 20.885 21.4026 20.6039 21.4026 20.3106C21.4026 20.0174 21.2915 19.7362 21.0937 19.5289C20.896 19.3216 20.6278 19.2051 20.3481 19.2051H9.3359C8.68322 19.2032 8.04708 18.9897 7.5147 18.5938C6.98232 18.198 6.57975 17.6392 6.36219 16.9941H18.9319C20.1681 16.9941 21.365 16.5388 22.3135 15.7077C23.262 14.8766 23.9018 13.7225 24.1211 12.447L24.9489 7.63355C25.0315 7.15597 25.013 6.66518 24.8945 6.19596C24.7761 5.72674 24.5606 5.29058 24.2635 4.91837ZM22.8789 7.24109L22.0501 12.0546C21.9184 12.8207 21.5338 13.5139 20.9638 14.0127C20.3937 14.5115 19.6744 14.7842 18.9319 14.783H6.02686L5.03457 5.93878H21.8349C21.9898 5.93781 22.1431 5.97263 22.2837 6.04077C22.4243 6.10891 22.5489 6.20869 22.6485 6.33302C22.7482 6.45735 22.8205 6.60317 22.8603 6.76011C22.9001 6.91706 22.9065 7.08128 22.8789 7.24109Z" fill="white"/>
<path d="M7.69495 26.9436C8.85972 26.9436 9.80395 25.9537 9.80395 24.7325C9.80395 23.5114 8.85972 22.5215 7.69495 22.5215C6.53017 22.5215 5.58594 23.5114 5.58594 24.7325C5.58594 25.9537 6.53017 26.9436 7.69495 26.9436Z" fill="white"/>
<path d="M18.2379 26.9436C19.4027 26.9436 20.3469 25.9537 20.3469 24.7325C20.3469 23.5114 19.4027 22.5215 18.2379 22.5215C17.0731 22.5215 16.1289 23.5114 16.1289 24.7325C16.1289 25.9537 17.0731 26.9436 18.2379 26.9436Z" fill="white"/>
</svg>
