<svg width="24" height="25" viewBox="0 0 24 25" fill="none" xmlns="http://www.w3.org/2000/svg">
<g clip-path="url(#clip0_77_644)">
<path d="M17.5009 1.99707C16.3749 2.01532 15.2734 2.34275 14.3077 2.94631C13.342 3.54987 12.5463 4.40818 12.0009 5.43457C11.4556 4.40818 10.6599 3.54987 9.69417 2.94631C8.72847 2.34275 7.62698 2.01532 6.50093 1.99707C4.70588 2.07831 3.01464 2.89629 1.79672 4.27231C0.578794 5.64833 -0.0668157 7.47053 0.000934853 9.34082C0.000934853 14.0773 4.78693 19.2502 8.80093 22.7575C9.69715 23.542 10.8303 23.9721 12.0009 23.9721C13.1716 23.9721 14.3047 23.542 15.2009 22.7575C19.2149 19.2502 24.0009 14.0773 24.0009 9.34082C24.0687 7.47053 23.4231 5.64833 22.2052 4.27231C20.9872 2.89629 19.296 2.07831 17.5009 1.99707ZM13.9159 21.1637C13.3799 21.6339 12.7017 21.8918 12.0009 21.8918C11.3002 21.8918 10.622 21.6339 10.0859 21.1637C4.94793 16.6731 2.00093 12.3648 2.00093 9.34082C1.93258 8.02282 2.3673 6.73012 3.2103 5.74467C4.05329 4.75923 5.23617 4.16098 6.50093 4.0804C7.7657 4.16098 8.94857 4.75923 9.79157 5.74467C10.6346 6.73012 11.0693 8.02282 11.0009 9.34082C11.0009 9.61709 11.1063 9.88204 11.2938 10.0774C11.4814 10.2727 11.7357 10.3825 12.0009 10.3825C12.2662 10.3825 12.5205 10.2727 12.708 10.0774C12.8956 9.88204 13.0009 9.61709 13.0009 9.34082C12.9326 8.02282 13.3673 6.73012 14.2103 5.74467C15.0533 4.75923 16.2362 4.16098 17.5009 4.0804C18.7657 4.16098 19.9486 4.75923 20.7916 5.74467C21.6346 6.73012 22.0693 8.02282 22.0009 9.34082C22.0009 12.3648 19.0539 16.6731 13.9159 21.1596V21.1637Z" fill="white"/>
</g>
<defs>
<clipPath id="clip0_77_644">
<rect width="24" height="25" fill="white"/>
</clipPath>
</defs>
</svg>
