<svg width="30" height="27" viewBox="0 0 30 27" fill="none" xmlns="http://www.w3.org/2000/svg">
<path d="M21.881 0C20.4735 0.0218937 19.0966 0.414816 17.8895 1.13909C16.6824 1.86336 15.6877 2.89334 15.006 4.125C14.3243 2.89334 13.3297 1.86336 12.1226 1.13909C10.9155 0.414816 9.53861 0.0218937 8.13105 0C5.88723 0.0974884 3.77318 1.07907 2.25078 2.73029C0.728376 4.38151 -0.0786368 6.56816 0.00605138 8.8125C0.00605138 14.4963 5.98855 20.7038 11.0061 24.9125C12.1263 25.8539 13.5427 26.37 15.006 26.37C16.4694 26.37 17.8858 25.8539 19.006 24.9125C24.0235 20.7038 30.006 14.4963 30.006 8.8125C30.0907 6.56816 29.2837 4.38151 27.7613 2.73029C26.2389 1.07907 24.1249 0.0974884 21.881 0ZM17.3998 23C16.7298 23.5642 15.882 23.8736 15.006 23.8736C14.1301 23.8736 13.2823 23.5642 12.6123 23C6.1898 17.6112 2.50605 12.4413 2.50605 8.8125C2.4206 7.2309 2.96401 5.67966 4.01776 4.49712C5.0715 3.31459 6.55009 2.59669 8.13105 2.5C9.71201 2.59669 11.1906 3.31459 12.2443 4.49712C13.2981 5.67966 13.8415 7.2309 13.7561 8.8125C13.7561 9.14402 13.8877 9.46196 14.1222 9.69638C14.3566 9.9308 14.6745 10.0625 15.006 10.0625C15.3376 10.0625 15.6555 9.9308 15.8899 9.69638C16.1244 9.46196 16.2561 9.14402 16.2561 8.8125C16.1706 7.2309 16.714 5.67966 17.7678 4.49712C18.8215 3.31459 20.3001 2.59669 21.881 2.5C23.462 2.59669 24.9406 3.31459 25.9943 4.49712C27.0481 5.67966 27.5915 7.2309 27.506 8.8125C27.506 12.4413 23.8223 17.6112 17.3998 22.995V23Z" fill="#0B3F37"/>
</svg>
