<svg width="60" height="56" viewBox="0 0 60 56" fill="none" xmlns="http://www.w3.org/2000/svg">
<g clip-path="url(#clip0_7806_2113)">
<path d="M49.1316 28.368C49.9189 27.6007 50.1969 26.4746 49.8573 25.4277C49.5169 24.3809 48.6302 23.6336 47.5409 23.475L37.8557 22.0677C37.4432 22.0076 37.0867 21.7489 36.9025 21.3749L32.5725 12.5987C32.0863 11.6127 31.0996 11 29.9998 11C28.9009 11 27.9141 11.6127 27.428 12.5987L23.0972 21.3749C22.9129 21.7489 22.5557 22.0076 22.1432 22.0677L12.458 23.4758C11.3695 23.6336 10.4828 24.3809 10.1424 25.4277C9.8028 26.4746 10.0807 27.6007 10.8681 28.368L17.8757 35.1986C18.1744 35.4902 18.3114 35.9099 18.2409 36.32L16.5869 45.966C16.4011 47.0497 16.8376 48.1238 17.7275 48.7709C18.6166 49.4189 19.774 49.503 20.7487 48.9896L29.4103 44.4353C29.7796 44.2415 30.2201 44.2415 30.5893 44.4353L39.2517 48.9896C39.6746 49.2123 40.1328 49.322 40.5885 49.322C41.1805 49.322 41.77 49.137 42.273 48.7709C43.1628 48.1238 43.5994 47.0497 43.4135 45.966L41.7587 36.3208C41.6883 35.9099 41.8252 35.491 42.124 35.1994L49.1316 28.368ZM40.1809 36.5915L41.8348 46.2367C41.9181 46.7221 41.7299 47.1858 41.331 47.4758C40.9314 47.7649 40.434 47.8002 39.9974 47.5727L31.335 43.0176C30.9177 42.799 30.458 42.6884 29.9998 42.6884C29.5417 42.6884 29.0827 42.799 28.6646 43.0184L20.0038 47.5727C19.5657 47.8002 19.0683 47.7649 18.6694 47.4758C18.2706 47.1858 18.0831 46.7229 18.1656 46.2367L19.8196 36.5915C19.979 35.6608 19.6706 34.7109 18.9946 34.0525L11.9862 27.2211C11.633 26.8767 11.5129 26.3913 11.6658 25.9227C11.818 25.4533 12.2001 25.1314 12.6879 25.0601L22.3723 23.6528C23.307 23.5174 24.1152 22.9311 24.5325 22.0837L28.8633 13.3076C29.0811 12.8654 29.5064 12.6019 29.999 12.6019C30.4924 12.6019 30.9169 12.8654 31.1356 13.3076L35.4664 22.0837C35.8837 22.9311 36.6911 23.5174 37.6258 23.6528L47.311 25.0601C47.7988 25.1314 48.1809 25.4533 48.333 25.9227C48.4852 26.3913 48.3659 26.8767 48.0127 27.2211L41.005 34.0517C40.329 34.7109 40.0207 35.66 40.1809 36.5915Z" fill="white"/>
</g>
<path d="M13.0518 37.3154L9.01037 39.6487C8.45236 39.9709 7.77615 39.8443 7.5 39.366C7.22386 38.8877 7.45236 38.2388 8.01037 37.9167L12.0518 35.5833C12.6098 35.2612 13.286 35.3877 13.5622 35.866C13.8383 36.3443 13.6098 36.9932 13.0518 37.3154Z" fill="white"/>
<path d="M42.2719 16.6987L45.3573 13.1976C45.7833 12.7142 45.7928 12.0263 45.3785 11.6612C44.9641 11.296 44.2829 11.3919 43.8569 11.8753L40.7714 15.3764C40.3454 15.8598 40.3359 16.5476 40.7502 16.9128C41.1646 17.278 41.8458 17.1821 42.2719 16.6987Z" fill="white"/>
<path d="M46.5436 37.9863L50.5851 40.3196C51.1431 40.6418 51.8193 40.5152 52.0954 40.0369C52.3716 39.5586 52.1431 38.9097 51.5851 38.5876L47.5436 36.2542C46.9856 35.9321 46.3094 36.0586 46.0333 36.5369C45.7571 37.0152 45.9856 37.6641 46.5436 37.9863Z" fill="white"/>
<path d="M17.8568 16.6987L14.7714 13.1976C14.3454 12.7142 14.3359 12.0263 14.7502 11.6612C15.1646 11.296 15.8458 11.3919 16.2718 11.8753L19.3573 15.3764C19.7833 15.8598 19.7928 16.5476 19.3785 16.9128C18.9641 17.278 18.2829 17.1821 17.8568 16.6987Z" fill="white"/>
<path d="M31 5.83333V1.16667C31 0.522334 30.5523 0 30 0C29.4477 0 29 0.522334 29 1.16667V5.83333C29 6.47767 29.4477 7 30 7C30.5523 7 31 6.47767 31 5.83333Z" fill="white"/>
<path d="M11.2391 54.539L14.539 51.2392C14.9946 50.7836 15.0473 50.0976 14.6568 49.7071C14.2663 49.3166 13.5804 49.3693 13.1248 49.825L9.82492 53.1248C9.36931 53.5804 9.31655 54.2663 9.70707 54.6569C10.0976 55.0474 10.7835 54.9946 11.2391 54.539Z" fill="white"/>
<path d="M44.825 51.2391L48.1248 54.539C48.5805 54.9946 49.2664 55.0473 49.6569 54.6568C50.0474 54.2663 49.9947 53.5804 49.5391 53.1247L46.2392 49.8249C45.7836 49.3693 45.0977 49.3165 44.7072 49.7071C44.3166 50.0976 44.3694 50.7835 44.825 51.2391Z" fill="white"/>
<path d="M54.0103 23.6487L58.0518 21.3154C58.6098 20.9932 58.8383 20.3443 58.5621 19.866C58.286 19.3877 57.6098 19.2612 57.0518 19.5833L53.0103 21.9167C52.4523 22.2388 52.2238 22.8877 52.5 23.366C52.7761 23.8443 53.4523 23.9709 54.0103 23.6487Z" fill="white"/>
<path d="M1.12685 24.2336L5.63451 25.4414C6.25688 25.6082 6.8773 25.3109 7.02024 24.7774C7.16318 24.244 6.77452 23.6763 6.15214 23.5096L1.64449 22.3017C1.02211 22.135 0.401699 22.4322 0.258757 22.9657C0.115815 23.4992 0.504474 24.0668 1.12685 24.2336Z" fill="white"/>
<path d="M31 53.8333V49.1667C31 48.5223 30.5523 48 30 48C29.4477 48 29 48.5223 29 49.1667V53.8333C29 54.4777 29.4477 55 30 55C30.5523 55 31 54.4777 31 53.8333Z" fill="white"/>
<defs>
<clipPath id="clip0_7806_2113">
<rect width="40" height="40" fill="white" transform="translate(10 10)"/>
</clipPath>
</defs>
</svg>
